<?xml version="1.0" standalone="no"?>
<!DOCTYPE svg PUBLIC "-//W3C//DTD SVG 20010904//EN"
 "http://www.w3.org/TR/2001/REC-SVG-20010904/DTD/svg10.dtd">
<svg version="1.0" xmlns="http://www.w3.org/2000/svg"
 width="184.000000pt" height="184.000000pt" viewBox="0 0 184.000000 184.000000"
 preserveAspectRatio="xMidYMid meet">
<metadata>
Created by potrace 1.11, written by Peter Selinger 2001-2013
</metadata>
<g transform="translate(0.000000,184.000000) scale(0.100000,-0.100000)"
fill="#000000" stroke="none">
<path d="M0 1604 l0 -235 233 3 232 3 0 110 0 110 117 3 117 3 3 -113 3 -113
218 0 c121 0 223 2 228 5 4 3 10 53 11 110 l3 105 107 3 107 3 3 -113 3 -112
228 -1 227 0 0 232 0 233 -110 0 -110 0 0 -120 0 -120 -120 0 -120 0 0 120 0
120 -460 0 -460 0 0 -120 0 -120 -110 0 -110 0 0 120 0 120 -120 0 -120 0 0
-236z"/>
<path d="M240 1030 l0 -110 110 0 110 0 0 -120 0 -120 -230 0 -230 0 0 -230 0
-230 120 0 120 0 0 -110 0 -110 690 0 690 0 0 110 0 110 110 0 110 0 0 230 0
230 -230 0 -230 0 0 120 0 120 120 0 120 0 0 110 0 110 -230 0 -230 0 0 -230
0 -230 -230 0 -230 0 0 230 0 230 -230 0 -230 0 0 -110z"/>
</g>
</svg>
